<?xml version="1.0" encoding="UTF-8" standalone="no"?>
<!-- Created with Inkscape (http://www.inkscape.org/) -->

<svg
   width="210mm"
   height="297mm"
   viewBox="0 0 210 297"
   version="1.1"
   id="svg42408"
   inkscape:version="1.1.2 (0a00cf5339, 2022-02-04)"
   sodipodi:docname="desenho.svg"
   xmlns:inkscape="http://www.inkscape.org/namespaces/inkscape"
   xmlns:sodipodi="http://sodipodi.sourceforge.net/DTD/sodipodi-0.dtd"
   xmlns="http://www.w3.org/2000/svg"
   xmlns:svg="http://www.w3.org/2000/svg">
  <sodipodi:namedview
     id="namedview42410"
     pagecolor="#ffffff"
     bordercolor="#666666"
     borderopacity="1.0"
     inkscape:pageshadow="2"
     inkscape:pageopacity="0.0"
     inkscape:pagecheckerboard="0"
     inkscape:document-units="mm"
     showgrid="false"
     inkscape:zoom="0.52724989"
     inkscape:cx="-654.33869"
     inkscape:cy="293.02994"
     inkscape:window-width="1920"
     inkscape:window-height="1011"
     inkscape:window-x="0"
     inkscape:window-y="0"
     inkscape:window-maximized="1"
     inkscape:current-layer="layer1" />
  <defs
     id="defs42405" />
  <g
     inkscape:label="Camada 1"
     inkscape:groupmode="layer"
     id="layer1">
    <g
       id="g52813"
       transform="matrix(1.3023755,0,0,1.3948506,363.37131,-146.95973)">
      <path
         style="fill:none;stroke:#000000;stroke-width:0.264583px;stroke-linecap:butt;stroke-linejoin:miter;stroke-opacity:1"
         d="m -227.92691,192.5524 c -1.96464,4.91812 0.62872,8.27656 0.94682,12.41356 2.04394,4.63698 4.3691,8.09638 6.72282,11.43621 l 9.5613,6.72187 -10.04952,0.16895 c -4.40936,0.48034 -5.30516,3.40281 -5.12109,7.858 0.38194,4.8109 2.93074,6.35286 4.65996,6.66603 l 43.24341,-0.20875 c 2.22528,-0.77485 4.83385,-1.98358 4.54581,-7.7023 -0.68775,-2.26894 0.39991,-4.6123 -4.50875,-6.44191 l -10.26956,-0.30029 c 4.83029,-3.20668 9.3477,-6.6281 12.65154,-10.88242 2.06118,-3.622 3.81952,-7.52676 4.47861,-12.16286 0.74575,-2.56211 0.99722,-5.12385 0.0259,-7.68596 -3.38433,-0.31845 -6.85803,0.0286 -10.51786,1.76147 l -8.41769,4.85576 c -2.09164,-5.8833 -2.44553,-11.50415 -9.19757,-16.862 -5.7195,2.68328 -8.47334,10.13302 -9.54767,16.78044 l -11.61312,-6.14288 c -2.60989,-0.25789 -5.79327,-1.73113 -7.59339,-0.27292 z"
         id="path42457"
         sodipodi:nodetypes="ccccccccccccccccccccc" />
      <path
         style="fill:#5599ff;stroke:#000000;stroke-width:0.264583px;stroke-linecap:butt;stroke-linejoin:miter;stroke-opacity:1"
         d="m -225.10261,195.6832 c 4.76116,0.64568 12.43586,2.1677 16.20566,9.34772 l -13.90683,0.22076 c -1.2479,-2.96634 -2.51383,-5.92432 -2.29883,-9.56848 z"
         id="path42459"
         sodipodi:nodetypes="cccc" />
      <path
         style="fill:#5599ff;stroke:#000000;stroke-width:0.264583px;stroke-linecap:butt;stroke-linejoin:miter;stroke-opacity:1"
         d="m -199.655,185.81487 c 2.45624,3.78056 4.55783,7.47603 5.35908,10.85951 l 0.45063,8.37386 -11.72618,0.0675 0.55975,-8.05283 c 1.17697,-4.31933 2.60259,-8.40579 5.35672,-11.24804 z"
         id="path42461"
         sodipodi:nodetypes="cccccc" />
      <path
         style="fill:#5599ff;stroke:#000000;stroke-width:0.264583px;stroke-linecap:butt;stroke-linejoin:miter;stroke-opacity:1"
         d="m -190.55505,204.92162 c 4.68836,-5.32826 10.19598,-8.71455 16.90967,-9.24201 -0.52789,3.2336 -0.69642,6.59702 -2.34018,9.4275 z"
         id="path42463"
         sodipodi:nodetypes="cccc" />
      <path
         style="fill:#5599ff;stroke:#000000;stroke-width:0.264583px;stroke-linecap:butt;stroke-linejoin:miter;stroke-opacity:1"
         d="m -221.37355,208.07954 1.14577,2.76464 41.43191,-0.1538 1.31998,-2.34043 z"
         id="path42465" />
      <path
         style="fill:#80b3ff;stroke:#000000;stroke-width:0.264583px;stroke-linecap:butt;stroke-linejoin:miter;stroke-opacity:1"
         d="m -217.95447,214.02283 2.13926,1.86523 32.27499,-0.18807 2.01158,-1.84495 z"
         id="path42467" />
      <path
         style="fill:#5599ff;stroke:#000000;stroke-width:0.264583px;stroke-linecap:butt;stroke-linejoin:miter;stroke-opacity:1"
         d="m -211.75852,218.37211 c 2.79683,1.2775 5.4221,2.90831 8.80256,2.9839 l -0.34965,-3.16615 z"
         id="path42469"
         sodipodi:nodetypes="cccc" />
      <path
         style="fill:#5599ff;stroke:#000000;stroke-width:0.264583px;stroke-linecap:butt;stroke-linejoin:miter;stroke-opacity:1"
         d="m -197.53872,218.32048 -2.3215,3.49197 c 0,0 -2.82914,-3.44635 -2.10049,-3.52709 z"
         id="path42471"
         sodipodi:nodetypes="cccc" />
      <path
         style="fill:#5599ff;stroke:#000000;stroke-width:0.264583px;stroke-linecap:butt;stroke-linejoin:miter;stroke-opacity:1"
         d="m -196.43455,221.1597 c 3.7353,0.12183 6.1132,-1.65647 8.92135,-2.8325 l -8.97457,-0.18981 z"
         id="path42473"
         sodipodi:nodetypes="cccc" />
      <path
         style="fill:#2a7fff;stroke:#000000;stroke-width:0.264583px;stroke-linecap:butt;stroke-linejoin:miter;stroke-opacity:1"
         d="m -215.9317,226.51688 1.55255,0.0405 0.0955,8.0213 -1.78313,0.0486 -0.0276,-0.97627 c -0.63752,0.86101 -1.98448,0.85674 -3.29463,0.89856 -1.43538,-0.48432 -2.74552,-1.05152 -3.29185,-4.03459 0.20499,-3.17441 1.95487,-3.67504 3.61046,-4.33842 2.07125,0.0666 2.28298,0.0478 3.22738,1.26009 z"
         id="path45605"
         sodipodi:nodetypes="cccccccccc" />
      <path
         style="fill:#2a7fff;stroke:#000000;stroke-width:0.264583px;stroke-linecap:butt;stroke-linejoin:miter;stroke-opacity:1"
         d="m -209.734,226.58841 c 1.08687,-0.13063 2.21498,0.33214 3.08225,0.9101 l -0.0248,-3.44563 1.75093,-0.0566 0.0854,10.66567 -1.90421,-0.0253 0.0352,-1.19135 c -1.19018,1.11456 -2.0583,1.10507 -2.93776,1.13518 -0.17365,-0.24486 -2.47161,0.91046 -3.80848,-3.80585 0.16188,-1.56965 0.0901,-3.46549 3.72147,-4.18622 z"
         id="path45728"
         sodipodi:nodetypes="cccccccccc" />
      <path
         style="fill:#2a7fff;stroke:#000000;stroke-width:0.264583px;stroke-linecap:butt;stroke-linejoin:miter;stroke-opacity:1"
         d="m -203.86983,225.8518 1.95377,0.0766 -0.0642,-1.85328 -1.87646,-0.005 z"
         id="path45730" />
      <path
         style="fill:#2a7fff;stroke:#000000;stroke-width:0.264583px;stroke-linecap:butt;stroke-linejoin:miter;stroke-opacity:1"
         d="m -203.77257,226.6087 -0.0337,7.88282 1.85578,-0.0149 -0.0927,-7.84111 z"
         id="path45732"
         sodipodi:nodetypes="ccccc" />
      <path
         style="fill:#2a7fff;stroke:#000000;stroke-width:0.264583px;stroke-linecap:butt;stroke-linejoin:miter;stroke-opacity:1"
         d="m -197.64788,226.41272 c 1.18903,-0.0736 2.97054,0.83131 2.95617,0.96701 l 0.0485,-3.32586 1.77397,-0.0146 0.15287,10.40275 -2.01364,0.0883 0.0143,-1.10767 c -0.7392,0.97337 -1.74123,1.09004 -2.77948,1.08865 -2.09064,0.0165 -3.54037,-1.05109 -3.84298,-4.05883 0.26066,-2.00194 0.38242,-3.39618 3.69029,-4.0398 z"
         id="path45734"
         sodipodi:nodetypes="ccccccccccc" />
      <path
         style="fill:#2a7fff;stroke:#000000;stroke-width:0.264583px;stroke-linecap:butt;stroke-linejoin:miter;stroke-opacity:1"
         d="m -188.25113,226.2006 c 1.23538,-0.0379 2.28038,0.25922 2.9365,1.24091 l -0.0142,-1.04785 1.69254,0.0819 -0.0161,8.10528 -1.9597,-0.0643 0.0322,-0.79174 c -1.11099,1.07163 -1.91743,0.73913 -2.81231,0.81438 -1.30542,-0.7003 -2.73926,-0.46111 -3.66057,-3.97151 0.0645,-2.15953 1.27129,-3.65059 3.80164,-4.36707 z"
         id="path45736"
         sodipodi:nodetypes="cccccccccc" />
      <path
         style="fill:#2a7fff;stroke:#000000;stroke-width:0.264583px;stroke-linecap:butt;stroke-linejoin:miter;stroke-opacity:1"
         d="m -178.15141,228.95937 1.6905,0.0373 c -0.12779,-1.10408 -0.73281,-2.00462 -1.97837,-2.63196 -0.92387,-0.21202 -1.84775,-0.10965 -2.77162,0.0118 -2.0776,1.48931 -1.4246,1.76067 -1.73579,2.4621 0.50778,2.38145 1.1692,1.78284 1.77909,2.18359 0.85864,0.0174 1.4239,0.10039 2.6079,0.23927 0.37132,1.18655 0.17963,1.12895 0.0872,1.55953 -0.9922,0.3085 -1.62413,0.1554 -2.29484,0.052 -0.49425,-0.22 -0.49736,-0.61327 -0.57213,-0.98125 l -1.68587,-0.0374 0.18735,1.59744 1.71977,1.12489 2.888,0.056 c 0.67336,-0.3602 1.33826,-0.73503 1.795,-1.47027 0.18766,-1.3121 -0.003,-2.2675 -0.006,-2.28692 -0.60862,-0.90201 -1.6296,-0.9232 -2.5402,-1.18017 -0.77574,-0.1436 -1.42622,-0.2054 -1.84545,-0.11617 -0.41785,-0.54292 -0.5143,-1.12106 0.0408,-1.77062 0.68753,-0.23171 1.42831,-0.0351 2.16686,0.14364 z"
         id="path45738"
         sodipodi:nodetypes="ccccccccccccccccccccc" />
      <path
         style="fill:#2a7fff;fill-opacity:0"
         id="path48974"
         sodipodi:type="arc"
         sodipodi:cx="-219.21219"
         sodipodi:cy="229.46207"
         sodipodi:rx="0.80619109"
         sodipodi:ry="0.74682772"
         sodipodi:start="0"
         sodipodi:end="0.063017905"
         sodipodi:arc-type="slice"
         d="m -218.406,229.46207 a 0.80619109,0.74682772 0 0 1 -0.002,0.047 l -0.80459,-0.047 z" />
      <path
         style="fill:#dbe2e3;stroke:#000000;stroke-width:0.264583px;stroke-linecap:butt;stroke-linejoin:miter;stroke-opacity:1"
         d="m -218.51897,227.89965 c -1.80451,0.43203 -2.61435,1.12124 -2.49499,2.76107 0.3061,1.31641 0.54838,2.4742 2.33333,2.26104 2.11398,0.0684 2.27981,-1.36999 2.65363,-2.5919 -0.13545,-1.32175 -0.49828,-2.27064 -2.49197,-2.43021 z"
         id="path49982"
         sodipodi:nodetypes="ccccc" />
      <path
         style="fill:#dbe2e3;stroke:#000000;stroke-width:0.264583px;stroke-linecap:butt;stroke-linejoin:miter;stroke-opacity:1"
         d="m -209.17012,228.04024 c 0.8953,0.39033 2.02065,9.3e-4 2.33685,2.35406 -0.24769,1.33004 -0.62264,2.55576 -2.54074,2.51657 -0.98272,-0.38636 -2.21071,-0.35052 -2.33632,-2.21223 0.18831,-1.99145 1.28495,-2.45806 2.54021,-2.6584 z"
         id="path49984"
         sodipodi:nodetypes="ccccc" />
      <path
         style="fill:#dbe2e3;stroke:#000000;stroke-width:0.264583px;stroke-linecap:butt;stroke-linejoin:miter;stroke-opacity:1"
         d="m -197.6951,228.28356 c 2.5382,-0.39296 2.6217,1.03494 2.67508,2.53602 -0.84127,2.34498 -1.59626,2.04673 -2.36879,2.14763 -2.87093,-0.97605 -2.11539,-0.677 -2.35818,-2.46105 0.27751,-1.33299 0.87432,-2.20081 2.05189,-2.2226 z"
         id="path49986"
         sodipodi:nodetypes="ccccc" />
      <path
         style="fill:#dbe2e3;stroke:#000000;stroke-width:0.264583px;stroke-linecap:butt;stroke-linejoin:miter;stroke-opacity:1"
         d="m -188.15203,227.87664 c 0.85566,0.36289 1.76099,-0.16741 2.49075,2.45922 -0.46302,2.66023 -1.40421,2.31647 -2.27879,2.39118 -1.70435,-0.19817 -2.45665,-0.28742 -2.33741,-2.34084 0.15163,-1.18666 -0.19251,-1.65579 2.12545,-2.50956 z"
         id="path49988"
         sodipodi:nodetypes="ccccc" />
    </g>
  </g>
</svg>
