<?xml version="1.0" encoding="UTF-8" standalone="no"?>
<!-- Created with Inkscape (http://www.inkscape.org/) -->

<svg
   xmlns:dc="http://purl.org/dc/elements/1.1/"
   xmlns:cc="http://creativecommons.org/ns#"
   xmlns:rdf="http://www.w3.org/1999/02/22-rdf-syntax-ns#"
   xmlns:svg="http://www.w3.org/2000/svg"
   xmlns="http://www.w3.org/2000/svg"
   xmlns:sodipodi="http://sodipodi.sourceforge.net/DTD/sodipodi-0.dtd"
   xmlns:inkscape="http://www.inkscape.org/namespaces/inkscape"
   width="210mm"
   height="297mm"
   viewBox="0 0 210 297"
   version="1.1"
   id="svg8"
   inkscape:version="0.92.5 (2060ec1f9f, 2020-04-08)"
   sodipodi:docname="panteranegra.svg">
  <defs
     id="defs2" />
  <sodipodi:namedview
     id="base"
     pagecolor="#ffffff"
     bordercolor="#666666"
     borderopacity="1.0"
     inkscape:pageopacity="0.0"
     inkscape:pageshadow="2"
     inkscape:zoom="0.35"
     inkscape:cx="400"
     inkscape:cy="560"
     inkscape:document-units="mm"
     inkscape:current-layer="layer1"
     showgrid="false"
     inkscape:window-width="1920"
     inkscape:window-height="1011"
     inkscape:window-x="0"
     inkscape:window-y="0"
     inkscape:window-maximized="1" />
  <metadata
     id="metadata5">
    <rdf:RDF>
      <cc:Work
         rdf:about="">
        <dc:format>image/svg+xml</dc:format>
        <dc:type
           rdf:resource="http://purl.org/dc/dcmitype/StillImage" />
        <dc:title></dc:title>
      </cc:Work>
    </rdf:RDF>
  </metadata>
  <g
     inkscape:label="Camada 1"
     inkscape:groupmode="layer"
     id="layer1">
    <path
       style="fill:#000000;stroke-width:0.18255708"
       d="m 100.86567,243.79829 c -0.35078,-0.039 -1.826772,-0.16342 -3.279986,-0.27647 -7.538222,-0.58632 -16.476483,-2.49559 -23.324342,-4.98223 -4.706036,-1.70888 -6.410713,-2.43709 -10.659955,-4.55371 -12.288088,-6.12092 -22.735011,-14.64427 -31.484317,-25.68717 -1.567196,-1.97803 -5.597731,-7.74385 -5.597731,-8.00774 0,-0.0561 -0.287,-0.50306 -0.637781,-0.99312 -0.350774,-0.49005 -0.637774,-0.95657 -0.637774,-1.03671 0,-0.0801 -0.372648,-0.74579 -0.828113,-1.47925 -1.176166,-1.89404 -4.245123,-8.29455 -5.426249,-11.31679 -3.736862,-9.56181 -5.649164,-18.0771 -6.341897,-28.23979 -0.25651,-3.76308 -0.100462,-12.69636 0.281449,-16.11186 1.123921,-10.05161 3.401811,-18.88927 7.09461,-27.52546 1.146703,-2.68174 4.837752,-9.75006 6.207901,-11.88807 3.438065,-5.364818 5.678978,-8.36854 9.414849,-12.619648 2.805332,-3.192233 8.512217,-8.63366 11.372908,-10.8439 0.100222,-0.07743 0.757692,-0.590956 1.461052,-1.14116 2.029603,-1.587673 6.303515,-4.517943 8.872888,-6.083413 2.77193,-1.688878 9.172953,-4.936856 11.774545,-5.974586 0.969388,-0.386671 2.295514,-0.922253 2.946959,-1.190181 1.480748,-0.609008 4.872966,-1.745517 7.740902,-2.593463 1.20459,-0.356155 2.432603,-0.721263 2.72892,-0.81135 1.054224,-0.320513 6.789442,-1.447157 9.210089,-1.809258 6.208858,-0.928774 14.551643,-1.232838 20.773233,-0.757106 2.86208,0.218847 8.15765,0.8953 10.11329,1.291865 6.62163,1.342733 12.39751,3.069028 17.76659,5.310091 0.75166,0.313746 1.69465,0.705104 2.09554,0.869684 0.40089,0.164582 2.33242,1.097771 4.29228,2.073754 10.97649,5.466121 20.7663,13.078348 29.14797,22.664479 2.34863,2.686132 7.31426,9.331448 8.26857,11.065502 0.16606,0.30178 0.78466,1.33055 1.37464,2.28617 1.36018,2.20311 4.43778,8.2538 5.53509,10.88216 5.024,12.03396 7.04171,22.31296 7.04777,35.90429 0.004,8.53529 -0.68172,15.17786 -2.27802,22.07293 -0.16301,0.70413 -0.40103,1.73291 -0.52892,2.28616 -0.54327,2.35023 -2.92153,9.56504 -3.8283,11.61373 -0.13357,0.30177 -0.54634,1.24825 -0.91729,2.10328 -1.12431,2.59155 -3.74446,7.7326 -4.88951,9.59376 -4.85573,7.89256 -8.27701,12.29056 -14.24969,18.31766 -6.33369,6.39139 -12.168,10.89701 -20.04574,15.48056 -7.39352,4.3018 -16.86423,8.04428 -24.87322,9.82895 -0.95211,0.21216 -2.0181,0.45945 -2.36888,0.5495 -0.57299,0.14712 -3.32268,0.60749 -6.55997,1.09828 -2.71198,0.41115 -5.12785,0.5555 -10.47773,0.62606 -3.10687,0.041 -5.93586,0.0426 -6.28663,0.003 z m 10.53392,-14.35623 c 7.08701,-0.76967 7.55599,-0.83776 10.87709,-1.5793 1.10244,-0.24615 2.37343,-0.52493 2.82443,-0.61952 1.97143,-0.41343 6.64058,-1.9303 9.93106,-3.2263 6.88686,-2.7125 14.86413,-7.48335 20.25485,-12.11353 0.41645,-0.35769 1.10861,-0.9384 1.53812,-1.29047 2.59891,-2.13031 6.79101,-6.56565 9.85319,-10.42492 6.83009,-8.60803 11.91013,-18.66431 14.73632,-29.1715 0.96611,-3.59184 1.86417,-8.48937 2.38113,-12.98543 0.31186,-2.71231 0.31058,-12.3484 -0.002,-15.08871 -1.36155,-11.93619 -4.25676,-20.76517 -10.31558,-31.45767 -2.90237,-5.12201 -4.9926,-9.53592 -5.80286,-12.253855 -1.04306,-3.498776 -1.10088,-3.906905 -1.1191,-7.900642 -0.0233,-5.096896 0.0959,-4.976662 -3.7353,-3.771077 -3.24487,1.021094 -7.1168,0.87867 -10.14105,-0.373027 -1.40879,-0.583082 -3.4746,-1.724585 -6.16776,-3.408107 -2.59921,-1.62479 -3.76858,-2.267491 -7.47108,-4.106209 -7.19995,-3.575596 -13.66379,-5.704197 -21.06964,-6.938407 -4.91518,-0.819134 -6.44082,-0.940211 -11.82132,-0.938151 -5.09602,0.0019 -7.649446,0.156472 -10.751055,0.650614 -3.458368,0.550977 -4.111197,0.664383 -4.737759,0.823023 -2.219611,0.56199 -5.99396,1.491544 -6.377751,1.570725 -0.250553,0.05169 -0.619551,0.165003 -0.819993,0.251795 -0.200442,0.08679 -0.856439,0.29119 -1.457773,0.45421 -1.608725,0.436128 -6.540377,2.299448 -9.56662,3.614547 -2.657109,1.15468 -5.044821,2.485661 -7.744416,4.316957 -2.406658,1.632583 -5.546773,3.469334 -6.632712,3.879684 -4.415931,1.668674 -7.621769,1.52043 -11.755018,-0.54357 l -2.170038,-1.08364 0.115586,5.169168 c 0.09444,4.223509 0.06426,5.466848 -0.164946,6.796361 -0.607712,3.525081 -1.878087,6.372981 -4.78818,10.734101 -5.906122,8.85101 -9.727,18.32675 -11.483006,28.47769 -1.060773,6.13201 -1.341581,13.84328 -0.732616,20.11828 0.260911,2.68853 0.689317,6.15672 0.881075,7.13284 0.08893,0.45266 0.259024,1.31683 0.377992,1.92038 0.118975,0.60355 0.339417,1.59117 0.489887,2.19472 0.150462,0.60355 0.339396,1.42656 0.419845,1.82893 0.172391,0.86219 1.228281,4.5931 1.449302,5.12102 0.08423,0.20118 0.379197,1.0242 0.655487,1.82893 3.990171,11.622 11.109133,22.59091 20.238359,31.18332 2.525847,2.37732 2.877138,2.67474 7.109176,6.01897 2.166491,1.71198 6.802603,4.63735 10.134896,6.39506 4.617558,2.43566 12.70657,5.57081 16.810377,6.51538 0.300663,0.0692 0.669661,0.15771 0.819993,0.19668 2.089741,0.5417 6.708952,1.38242 8.928853,1.6251 1.553435,0.16983 3.357424,0.37444 4.008868,0.45468 1.778617,0.21911 9.976777,0.2197 11.991697,6.9e-4 z M 85.812062,216.41981 c -0.166668,-0.32693 -0.906281,-1.4826 -1.643594,-2.56818 -2.007613,-2.95588 -2.090348,-3.19335 -2.273393,-6.52542 -0.190112,-3.46058 -0.409466,-5.05484 -1.007336,-7.32109 -0.992687,-3.76282 -2.726992,-7.3299 -5.201957,-10.69926 -2.557293,-3.48143 -8.083543,-8.70287 -12.790654,-12.08515 -6.033134,-4.33509 -7.971497,-5.87693 -15.96216,-12.6969 -3.396591,-2.89897 -4.966597,-4.21519 -5.346566,-4.48231 -0.334031,-0.23483 -0.330705,-0.2853 0.122446,-1.85747 0.706294,-2.45048 2.876649,-10.13803 3.037979,-10.76076 0.07818,-0.30177 0.753037,-2.68853 1.499675,-5.30391 0.746645,-2.61537 1.660654,-5.8663 2.031125,-7.22429 0.370471,-1.35799 0.791563,-2.79886 0.935765,-3.20193 0.144195,-0.40308 0.314004,-1.23058 0.377352,-1.83889 0.101543,-0.97508 0.04979,-1.25639 -0.437008,-2.37631 -2.007289,-4.61779 -2.593189,-8.95556 -2.239412,-16.57979 0.107818,-2.3236 0.196028,-7.96645 0.196028,-12.539676 v -8.314951 l 0.410003,0.116361 c 0.225498,0.064 0.945359,0.23324 1.599696,0.376095 0.65433,0.142854 2.66332,0.629428 4.464423,1.081275 7.985127,2.003253 8.632983,2.302052 9.645636,4.448699 0.548131,1.161938 0.699944,2.005157 2.380846,13.224037 0.505679,3.37506 1.167316,6.86985 1.456175,7.69158 0.598077,1.70139 1.339977,2.52329 5.173327,5.73117 2.056573,1.72101 3.955631,3.29371 4.220131,3.4949 0.527387,0.40113 1.772259,1.41344 2.325755,1.89126 0.193328,0.1669 0.984099,0.79727 1.75726,1.40082 0.77316,0.60354 2.115437,1.66357 2.982827,2.35561 1.995588,1.59217 5.23246,4.01434 6.769077,5.06536 4.167492,2.85049 5.679736,5.84757 5.018656,9.9464 -0.207185,1.2846 -0.699131,3.04299 -0.942391,3.36846 -0.02831,0.0379 -0.444266,-0.25608 -0.924332,-0.65328 -0.480066,-0.39719 -2.553843,-1.98709 -4.608385,-3.53312 -2.054548,-1.54602 -4.227541,-3.19206 -4.828868,-3.65787 -0.601334,-0.4658 -1.503325,-1.155 -2.004437,-1.53155 -0.501106,-0.37654 -1.056462,-0.80349 -1.234115,-0.94878 -0.460885,-0.3769 -3.013447,-2.31188 -3.480311,-2.63826 -0.215835,-0.15089 -2.06764,-1.55002 -4.115115,-3.10919 -8.589312,-6.54082 -9.883971,-7.498 -10.024035,-7.41112 -0.13217,0.082 -3.355585,4.50011 -5.472978,7.50144 -0.451002,0.63928 -1.326946,1.86229 -1.946544,2.7178 l -1.126545,1.55548 0.448385,0.29487 c 0.443295,0.29154 0.466409,0.27736 2.037654,-1.25045 3.331212,-3.2391 4.475305,-3.95191 6.34782,-3.95491 0.991234,-0.001 1.322869,0.10617 3.00665,0.97702 1.04089,0.53833 2.940079,1.66999 4.220413,2.51478 1.280341,0.84479 3.597783,2.359 5.149876,3.36491 7.398992,4.79529 14.403236,9.44626 15.799129,10.49094 0.905172,0.67745 1.935511,2.07313 2.287945,3.09922 l 0.207702,0.60472 -0.859656,-0.12038 c -1.416768,-0.19839 -2.025037,-0.37689 -4.523515,-1.32752 -1.313571,-0.49978 -3.059315,-1.12067 -3.879432,-1.37976 -0.820116,-0.25908 -1.959368,-0.67279 -2.531666,-0.91936 -0.572305,-0.24656 -1.778541,-0.75594 -2.680538,-1.13196 -0.901998,-0.37602 -2.869989,-1.31574 -4.373314,-2.08828 -3.421942,-1.75848 -5.175462,-2.24059 -8.159391,-2.24334 -3.403863,-0.003 -5.188224,0.46456 -13.980512,3.66438 -1.653657,0.60183 -3.601145,1.24535 -4.327756,1.43003 -0.72661,0.18469 -1.321105,0.38743 -1.321105,0.45053 0,0.0631 0.717499,0.60041 1.594434,1.19402 0.876942,0.59361 2.455433,1.70299 3.507763,2.46528 2.939403,2.12926 7.308378,5.00458 9.931065,6.53585 6.921419,4.04111 12.283212,8.23754 18.49862,14.47803 2.256713,2.26583 4.480422,4.57235 4.941569,5.12559 0.46114,0.55326 1.320727,1.58248 1.910181,2.28716 1.38499,1.65572 3.064742,3.75514 4.033021,5.0406 1.669745,2.21672 4.077519,3.23943 9.21133,3.91257 4.34443,0.56964 8.40135,0.23328 12.14307,-1.00675 1.47787,-0.48979 4.32215,-1.95892 5.74741,-2.96869 2.6342,-1.86624 5.48589,-5.23772 8.00126,-9.45961 2.6833,-4.50375 6.76741,-8.14501 14.50651,-12.9335 5.99059,-3.7066 7.1862,-4.4948 12.03556,-7.93436 1.7588,-1.24748 4.60532,-3.21462 6.32558,-4.37142 1.72028,-1.15681 3.13074,-2.14595 3.13437,-2.19811 0.007,-0.0953 -3.56602,-1.40364 -9.83334,-3.60112 -5.46312,-1.91551 -8.29537,-2.79676 -8.98843,-2.79676 -0.35967,0 -1.81464,0.4599 -3.25639,1.02933 -1.43342,0.56613 -3.30322,1.29401 -4.1551,1.61752 -1.70944,0.64916 -9.39645,3.60432 -16.03548,6.16462 -2.35522,0.90827 -4.43272,1.73183 -4.61669,1.83013 -0.18399,0.0983 -0.37256,0.14056 -0.41904,0.0939 -0.10664,-0.10703 1.50077,-2.81648 2.01207,-3.39155 0.4108,-0.46203 5.9648,-4.19512 16.69026,-11.21824 2.60557,-1.70614 4.18885,-2.73316 4.59187,-2.97855 0.44271,-0.26956 3.65809,-2.29208 4.57004,-2.87461 2.63239,-1.68151 3.18736,-1.82976 5.06124,-1.35195 1.29302,0.32972 1.99747,0.78178 4.48918,2.88087 1.59104,1.34031 2.54649,1.98015 2.95693,1.98015 0.17558,0 -0.60143,-1.14945 -4.30651,-6.37069 -0.88033,-1.24058 -2.11749,-2.9895 -2.74925,-3.88649 -0.63176,-0.89699 -1.23612,-1.63089 -1.34301,-1.63089 -0.10691,0 -0.97361,0.59669 -1.926,1.32597 -0.9524,0.72929 -2.56204,1.96281 -3.57698,2.74116 -1.01491,0.77834 -3.5673,2.72507 -5.67196,4.32606 -2.10466,1.601 -5.17964,3.95178 -6.83331,5.22396 -1.65365,1.27218 -4.48264,3.43512 -6.28663,4.80654 -1.804,1.37141 -4.00423,3.06065 -4.88942,3.75386 -0.8852,0.69321 -1.70542,1.22342 -1.82273,1.17824 -0.28499,-0.10977 -1.16153,-2.89042 -1.3098,-4.15518 -0.14722,-1.25566 0.17228,-3.09347 0.72872,-4.19183 1.11137,-2.19371 2.03405,-3.06736 8.02211,-7.59597 1.4031,-1.06112 3.0841,-2.35966 3.73554,-2.88563 3.54169,-2.85956 9.29517,-7.40955 11.20662,-8.86248 2.77268,-2.10755 3.88541,-3.26584 4.82234,-5.01971 0.90521,-1.69452 1.19882,-3.03466 1.45653,-6.64817 0.61624,-8.64065 1.35491,-13.080616 2.46626,-14.824353 1.13316,-1.777961 1.79016,-2.203724 4.73925,-3.071284 1.47295,-0.433311 5.63552,-1.414097 8.29107,-1.953543 0.55122,-0.111973 1.47424,-0.334395 2.05116,-0.494268 0.57691,-0.159874 1.0826,-0.256892 1.12374,-0.215595 0.0411,0.0413 0,0.738907 -0.0896,1.550243 -0.2489,2.23279 -0.27788,6.834357 -0.0985,15.62527 0.21195,10.38547 -0.0233,13.10298 -1.56745,18.10645 -1.21941,3.95121 -1.27466,3.45894 1.61116,14.35714 1.16245,4.38995 2.99357,10.66258 4.08441,13.99134 1.73161,5.28419 1.32728,6.64833 -2.98273,10.06336 -3.38718,2.68383 -3.79826,3.01211 -4.01157,3.20351 -0.11644,0.10449 -1.48272,1.21463 -3.03615,2.46697 -1.55344,1.25234 -2.86543,2.32163 -2.91554,2.37619 -0.0501,0.0545 -1.15711,0.95696 -2.45999,2.00534 -1.30288,1.04838 -2.90992,2.36266 -3.57117,2.92063 -1.42787,1.20484 -3.68104,3.08101 -4.23463,3.52612 -0.21679,0.1743 -0.72216,0.60152 -1.12305,0.94936 -0.63302,0.54926 -3.70449,3.1449 -4.9942,4.22048 -3.6453,3.04009 -4.69999,4.43558 -6.15131,8.13881 -0.6085,1.55268 -1.66401,5.71929 -2.06175,8.13875 -0.23379,1.42221 -0.83753,4.40635 -1.09156,5.39535 -0.0904,0.35208 -0.30221,1.1751 -0.47062,1.82894 -0.29495,1.14509 -1.32213,3.45358 -1.79,4.0228 -0.1244,0.15135 -0.62143,0.97476 -1.10452,1.82979 -0.48306,0.85503 -0.90719,1.58727 -0.94245,1.62721 -0.0353,0.04 -0.49624,-0.34637 -1.02437,-0.85849 -2.72079,-2.63826 -5.90412,-4.16193 -10.98229,-5.25658 -6.00363,-1.29414 -14.14887,-0.77672 -19.182747,1.21856 -3.591516,1.42357 -6.168018,3.22996 -7.076111,4.96106 -0.343281,0.65441 -0.542525,0.63444 -0.91259,-0.0914 z m -10.005425,-9.25208 c -5.954979,-3.10815 -9.8603,-6.90896 -11.537607,-11.22886 -1.198432,-3.08656 -1.339866,-4.01396 -1.436905,-9.42214 -0.07371,-4.10741 -0.04807,-4.80095 0.177542,-4.80095 0.327792,0 3.105032,1.74827 5.029834,3.16627 1.831358,1.34917 4.516352,4.01675 5.856294,5.81833 1.326382,1.78333 2.743941,4.56937 3.351343,6.58663 0.664144,2.20571 1.087784,6.00396 0.915145,8.20491 -0.07495,0.95562 -0.149078,1.92207 -0.164712,2.14768 -0.01563,0.2256 -0.06481,0.4467 -0.109257,0.49132 -0.04442,0.0446 -0.981213,-0.38882 -2.081677,-0.96319 z m 56.635093,-2.08732 c 0.18797,-5.46835 1.27131,-9.31722 3.77086,-13.39694 2.28726,-3.73319 5.97548,-7.1264 10.53145,-9.68908 0.96879,-0.54493 1.7774,-0.97458 1.7969,-0.95477 0.0195,0.0198 -0.12191,1.22941 -0.31422,2.68799 -2.08444,15.80905 -4.4485,19.88456 -13.84047,23.86021 -0.84131,0.35613 -1.64741,0.6475 -1.79131,0.6475 -0.22147,0 -0.24499,-0.48457 -0.15321,-3.15491 z m -30.84718,-15.68267 c -1.38106,-0.21985 -3.888459,-1.03381 -5.150418,-1.67195 -3.622185,-1.83162 -5.778222,-4.06162 -9.419615,-9.74274 -2.999267,-4.67929 -8.512824,-9.34734 -17.044993,-14.43113 -0.200229,-0.11931 -1.020229,-0.63673 -1.822212,-1.14983 -0.80199,-0.5131 -1.663154,-1.06352 -1.913713,-1.22318 -2.375488,-1.51364 -12.843321,-8.71617 -12.895339,-8.8728 -0.03719,-0.11196 0.204568,-0.32002 0.537229,-0.46236 0.332654,-0.14233 1.137826,-0.51268 1.789271,-0.823 4.590292,-2.1866 9.018805,-3.11145 13.202324,-2.75717 1.960271,0.166 2.268992,0.22847 4.19982,0.84978 1.705297,0.54874 3.643962,1.40957 5.135186,2.2802 1.185196,0.69195 3.866877,1.8753 4.70477,2.07609 0.300663,0.072 0.628662,0.19095 0.728883,0.26425 0.100221,0.0733 0.879222,0.36225 1.731102,0.64214 2.368415,0.77814 4.408789,1.73115 4.821341,2.25194 0.204581,0.25826 0.685694,1.04996 1.069127,1.75935 0.987074,1.82616 0.955504,1.80465 2.135155,1.45534 2.027633,-0.6004 3.010679,-2.32416 4.285599,-7.51468 0.613483,-2.49765 0.661886,-2.89678 0.660501,-5.44598 -0.0014,-2.44046 -0.05303,-2.90819 -0.458123,-4.14566 -1.241222,-3.79157 -3.451371,-6.29622 -7.95806,-9.0185 -2.786738,-1.68332 -5.311393,-3.54748 -8.677853,-6.40756 -2.696812,-2.29116 -3.287505,-2.77932 -4.710781,-3.89316 -0.804325,-0.62945 -1.544414,-1.20962 -1.644635,-1.28926 -0.100221,-0.0797 -0.510218,-0.36804 -0.911109,-0.6409 -1.073879,-0.7309 -2.771579,-2.45308 -3.549795,-3.60098 -1.542912,-2.27587 -2.227821,-4.27085 -2.543016,-7.40719 -0.101089,-1.00592 -0.271249,-2.65196 -0.37813,-3.65787 -0.855819,-8.054633 -0.906515,-9.516555 -0.373302,-10.765091 0.203804,-0.477202 0.802135,-1.300751 1.329632,-1.830107 0.780433,-0.78319 1.16273,-1.016441 2.052407,-1.252232 0.601334,-0.159372 2.405322,-0.631218 4.008875,-1.048549 1.603546,-0.417329 3.284537,-0.874486 3.735533,-1.015904 1.306567,-0.409693 9.838709,-2.587466 18.224865,-4.651781 8.649404,-2.129111 8.716374,-2.136872 11.841664,-1.372115 1.05233,0.257504 2.24133,0.536216 2.64221,0.619363 0.40088,0.08315 3.35287,0.826824 6.55997,1.65262 3.2071,0.825798 6.32308,1.620188 6.92442,1.765312 2.29976,0.555025 4.0569,0.996564 5.33542,1.340708 0.72961,0.19639 3.5996,0.898986 6.37775,1.561325 2.77816,0.662337 5.47152,1.370612 5.98524,1.573946 2.08081,0.823567 2.62186,2.220989 1.97499,5.100856 -1.10787,4.932289 -1.53416,8.335579 -1.5395,12.290579 -0.002,1.177 -0.0956,2.57614 -0.20884,3.10919 -0.6145,2.89175 -2.43836,5.20831 -6.53623,8.30199 -1.05233,0.79446 -2.01298,1.52714 -2.13478,1.62817 -0.43285,0.35907 -0.72045,0.58303 -3.4128,2.65767 -6.02177,4.64017 -8.22331,6.36077 -8.65226,6.76215 -0.16124,0.15089 -0.66073,0.56008 -1.10996,0.90932 -1.82663,1.42006 -5.22786,4.31192 -5.78854,4.92163 -1.22602,1.33328 -2.01109,3.62175 -2.17202,6.33147 -0.0781,1.31481 -0.003,2.14287 0.37583,4.11509 0.26048,1.35799 0.60072,3.37439 0.7561,4.48089 0.55946,3.98395 0.83793,4.41977 3.3587,5.25633 l 1.35572,0.44993 0.97985,-1.57287 c 1.20741,-1.93817 1.16224,-1.8943 2.54542,-2.47183 0.62399,-0.26054 1.56698,-0.66869 2.09555,-0.90699 7.4502,-3.35897 11.7306,-5.02384 15.35651,-5.97298 2.08884,-0.54679 5.90073,-0.68767 7.83552,-0.28959 1.33867,0.27543 9.17679,2.07648 9.70329,2.22963 0.28534,0.083 0.31863,2.08957 0.0347,2.08957 -0.1062,0 -1.0287,0.60175 -2.04999,1.33722 -2.95864,2.13064 -6.54844,4.52123 -9.69178,6.45417 -3.70723,2.2797 -9.34104,6.1565 -11.57169,7.96286 -0.35078,0.28405 -1.41677,1.14931 -2.36888,1.92279 -2.23596,1.81647 -7.23621,6.85384 -8.7512,8.81617 -0.64893,0.84055 -1.69541,2.28084 -2.32553,3.20064 -2.33376,3.40668 -2.75637,3.9353 -3.71024,4.64099 -1.19658,0.88522 -3.06936,1.65334 -4.88889,2.00515 -1.61422,0.31211 -8.53138,0.47709 -10.02622,0.23912 z M 81.234863,163.70418 c 1.396361,-0.48263 2.812068,-1.52046 4.907601,-3.59766 1.182462,-1.17212 2.149928,-2.21424 2.149928,-2.31582 0,-0.10158 -0.348501,-0.24357 -0.774441,-0.31553 -1.216594,-0.20553 -4.567985,-1.42006 -7.061083,-2.55891 -6.05549,-2.76616 -8.085121,-3.50358 -11.101529,-4.03347 -1.597169,-0.28057 -2.093302,-0.29583 -3.651566,-0.11233 -2.815436,0.33154 -6.169161,1.52518 -5.482324,1.95123 0.105084,0.0652 0.191069,0.27537 0.191069,0.46708 0,0.19171 0.184499,0.44469 0.409997,0.56218 0.225497,0.11749 1.188997,0.73125 2.141098,1.3639 1.81985,1.20924 5.170387,3.3447 8.837744,5.6327 5.165241,3.22252 7.00027,3.79765 9.433506,2.95663 z m 51.947057,0.17967 c 1.03131,-0.30106 3.40467,-1.58988 6.22357,-3.3796 1.00222,-0.63631 2.92921,-1.85513 4.2822,-2.70848 3.43852,-2.16872 3.50743,-2.21263 5.68711,-3.62296 1.07338,-0.6945 1.95487,-1.31848 1.95888,-1.38661 0.0113,-0.19287 -2.85617,-1.25448 -4.17931,-1.54726 -3.08811,-0.68329 -6.01477,-0.48072 -9.57109,0.66248 -1.54442,0.49646 -4.50321,1.73139 -5.9222,2.4718 -2.11324,1.10266 -7.84472,3.36657 -8.56441,3.38292 -0.15033,0.003 -0.38877,0.0796 -0.52988,0.16922 -0.27222,0.17297 0.68275,1.15073 2.98987,3.06126 3.60669,2.98668 5.21959,3.59951 7.62526,2.89723 z"
       id="path3724"
       inkscape:connector-curvature="0" />
  </g>
</svg>
